<?xml version="1.0" encoding="UTF-8"?><svg xmlns="http://www.w3.org/2000/svg" xmlns:xlink="http://www.w3.org/1999/xlink"
  viewBox="0 0 154.07 119.71">
  <defs>
    <style>
      .n {
        fill: url(#e);
      }

      .o {
        fill: url(#j);
      }

      .p {
        fill: #fff;
      }

      .q {
        fill: #271100;
      }

      .r {
        fill: url(#m);
      }

      .r,
      .s {
        stroke: #623b00;
        stroke-miterlimit: 10;
      }

      .s {
        fill: url(#h);
      }
    </style>
    <radialGradient id="e" cx="35.69" cy="59.85" fx="35.69" fy="59.85" r="61.39"
      gradientTransform="translate(-.21 95.65) rotate(-90.18) scale(1 .6)" gradientUnits="userSpaceOnUse">
      <stop offset=".02" stop-color="#fff" />
      <stop offset=".85" stop-color="#f1f1f1" />
      <stop offset=".86" stop-color="#ebebeb" />
      <stop offset=".88" stop-color="#dcdcdc" />
      <stop offset=".91" stop-color="#c2c2c2" />
      <stop offset=".93" stop-color="#a0a0a0" />
      <stop offset=".95" stop-color="#898989" />
      <stop offset=".98" stop-color="#707070" />
      <stop offset="1" stop-color="#686868" />
    </radialGradient>
    <radialGradient id="h" cx="21.29" cy="64.56" fx="21.29" fy="78.52" r="37.25"
      gradientTransform="matrix(1, 0, 0, 1, 0, 0)" gradientUnits="userSpaceOnUse">
      <stop offset=".02" stop-color="#e0af00" />
      <stop offset=".17" stop-color="#e0af00" />
      <stop offset=".52" stop-color="#633b0a" />
      <stop offset=".77" stop-color="#5b3102" />
    </radialGradient>
    <radialGradient id="j" cx="118.39" fx="118.39"
      gradientTransform="translate(82.75 178.35) rotate(-90.18) scale(1 .6)" xlink:href="#e" />
    <radialGradient id="m" cx="103.99" fx="103.99" xlink:href="#h" />
  </defs>
  <g id="a" />
  <g id="b">
    <g id="c">
      <g id="d">
        <ellipse id="f" class="n" cx="35.69" cy="59.85" rx="35.69" ry="59.85" />
        <g id="g">
          <path class="s"
            d="M21.29,42.64c-10.9,0-19.74,9.81-19.74,21.91s8.84,21.91,19.74,21.91,19.74-9.81,19.74-21.91-8.84-21.91-19.74-21.91Zm-.59,37.88c-7.55,0-13.67-6.65-13.67-14.85,0-2.05,.38-4.01,1.08-5.79-.43-.16-.84-.39-1.2-.7-2.08-1.79-1.88-5.45,.46-8.17s5.92-3.47,8-1.68c.65,.56,1.05,1.31,1.26,2.15,1.29-.43,2.65-.67,4.07-.67,7.55,0,13.67,6.65,13.67,14.85s-6.12,14.85-13.67,14.85Z" />
          <path class="q"
            d="M20.7,50.82c-1.42,0-2.79,.23-4.07,.67,.46,1.84-.11,4.15-1.72,6.02-1.93,2.25-4.72,3.15-6.81,2.38-.69,1.78-1.08,3.73-1.08,5.79,0,8.2,6.12,14.85,13.67,14.85s13.67-6.65,13.67-14.85-6.12-14.85-13.67-14.85Z" />
          <path class="p"
            d="M16.63,51.49c-.21-.84-.61-1.59-1.26-2.15-2.08-1.79-5.67-1.04-8,1.68s-2.54,6.38-.46,8.17c.36,.31,.76,.54,1.2,.7,1.56-3.99,4.68-7.09,8.53-8.39Z" />
          <path class="p"
            d="M14.91,57.51c1.61-1.87,2.18-4.17,1.72-6.02-3.85,1.3-6.97,4.4-8.53,8.39,2.09,.77,4.87-.12,6.81-2.38Z" />
        </g>
      </g>
      <g id="i">
        <ellipse id="k" class="o" cx="118.39" cy="59.85" rx="35.69" ry="59.85" />
        <g id="l">
          <path class="r"
            d="M103.99,42.64c-10.9,0-19.74,9.81-19.74,21.91s8.84,21.91,19.74,21.91,19.74-9.81,19.74-21.91-8.84-21.91-19.74-21.91Zm-.59,37.88c-7.55,0-13.67-6.65-13.67-14.85,0-2.05,.38-4.01,1.08-5.79-.43-.16-.84-.39-1.2-.7-2.08-1.79-1.88-5.45,.46-8.17s5.92-3.47,8-1.68c.65,.56,1.05,1.31,1.26,2.15,1.29-.43,2.65-.67,4.07-.67,7.55,0,13.67,6.65,13.67,14.85s-6.12,14.85-13.67,14.85Z" />
          <path class="q"
            d="M103.4,50.82c-1.42,0-2.79,.23-4.07,.67,.46,1.84-.11,4.15-1.72,6.02-1.93,2.25-4.72,3.15-6.81,2.38-.69,1.78-1.08,3.73-1.08,5.79,0,8.2,6.12,14.85,13.67,14.85s13.67-6.65,13.67-14.85-6.12-14.85-13.67-14.85Z" />
          <path class="p"
            d="M99.33,51.49c-.21-.84-.61-1.59-1.26-2.15-2.08-1.79-5.67-1.04-8,1.68s-2.54,6.38-.46,8.17c.36,.31,.76,.54,1.2,.7,1.56-3.99,4.68-7.09,8.53-8.39Z" />
          <path class="p"
            d="M97.61,57.51c1.61-1.87,2.18-4.17,1.72-6.02-3.85,1.3-6.97,4.4-8.53,8.39,2.09,.77,4.87-.12,6.81-2.38Z" />
        </g>
      </g>
    </g>
  </g>
</svg>